<svg xmlns="http://www.w3.org/2000/svg" viewBox="0 0 800 600">
  <!-- Background elements -->
  <defs>
    <pattern id="ocean" width="100" height="100" patternUnits="userSpaceOnUse">
      <rect width="100" height="100" fill="#0a2851"/>
      <path d="M0 10 Q 10 0, 20 10 T 40 10 T 60 10 T 80 10 T 100 10" stroke="#1a3a7a" stroke-width="2" fill="none"/>
      <path d="M0 30 Q 10 20, 20 30 T 40 30 T 60 30 T 80 30 T 100 30" stroke="#1a3a7a" stroke-width="2" fill="none"/>
      <path d="M0 50 Q 10 40, 20 50 T 40 50 T 60 50 T 80 50 T 100 50" stroke="#1a3a7a" stroke-width="2" fill="none"/>
      <path d="M0 70 Q 10 60, 20 70 T 40 70 T 60 70 T 80 70 T 100 70" stroke="#1a3a7a" stroke-width="2" fill="none"/>
      <path d="M0 90 Q 10 80, 20 90 T 40 90 T 60 90 T 80 90 T 100 90" stroke="#1a3a7a" stroke-width="2" fill="none"/>
    </pattern>

    <pattern id="clouds" width="200" height="200" patternUnits="userSpaceOnUse">
      <ellipse cx="25" cy="50" rx="20" ry="10" fill="rgba(255,255,255,0.2)"/>
      <ellipse cx="100" cy="80" rx="30" ry="15" fill="rgba(255,255,255,0.2)"/>
      <ellipse cx="170" cy="30" rx="25" ry="12" fill="rgba(255,255,255,0.2)"/>
      <ellipse cx="60" cy="150" rx="35" ry="17" fill="rgba(255,255,255,0.2)"/>
      <ellipse cx="150" cy="130" rx="20" ry="10" fill="rgba(255,255,255,0.2)"/>
    </pattern>

    <radialGradient id="explosion" cx="0.5" cy="0.5" r="0.5" fx="0.5" fy="0.5">
      <stop offset="0%" stop-color="#fff" />
      <stop offset="20%" stop-color="#ffff00" />
      <stop offset="40%" stop-color="#ff8000" />
      <stop offset="60%" stop-color="#ff0000" />
      <stop offset="100%" stop-color="#000" />
    </radialGradient>
  </defs>

  <!-- Background -->
  <rect width="800" height="600" fill="url(#ocean)"/>
  <rect width="800" height="600" fill="url(#clouds)"/>

  <!-- Islands -->
  <g id="island1" transform="translate(200, 300)">
    <ellipse cx="0" cy="0" rx="50" ry="30" fill="#006600"/>
    <ellipse cx="-15" cy="-10" rx="20" ry="10" fill="#008800"/>
    <ellipse cx="20" cy="5" rx="15" ry="8" fill="#008800"/>
  </g>

  <g id="island2" transform="translate(600, 150)">
    <ellipse cx="0" cy="0" rx="40" ry="25" fill="#006600"/>
    <ellipse cx="10" cy="-5" rx="15" ry="8" fill="#008800"/>
    <ellipse cx="-15" cy="5" rx="10" ry="5" fill="#008800"/>
  </g>

  <!-- Player Plane -->
  <g id="player-plane" transform="translate(100, 50)">
    <!-- Plane body -->
    <path d="M0 0 L-10 15 L10 15 Z" fill="#d0d0d0" stroke="#808080" stroke-width="1"/>
    <rect x="-8" y="2" width="16" height="13" fill="#c0c0c0" stroke="#808080" stroke-width="1"/>
    <path d="M-8 2 L-15 -5 L15 -5 L8 2 Z" fill="#c0c0c0" stroke="#808080" stroke-width="1"/>
    <rect x="-1" y="-10" width="2" height="5" fill="#c0c0c0" stroke="#808080" stroke-width="1"/>
    <ellipse cx="0" cy="0" rx="3" ry="5" fill="#a0a0a0" stroke="#808080" stroke-width="1"/>

    <!-- Wings -->
    <path d="M-8 8 L-25 15 L-25 13 L-8 5 Z" fill="#404080" stroke="#202040" stroke-width="1"/>
    <path d="M8 8 L25 15 L25 13 L8 5 Z" fill="#404080" stroke="#202040" stroke-width="1"/>

    <!-- Tail -->
    <path d="M-3 15 L-7 23 L-4 23 L-1 15 Z" fill="#d0d0d0" stroke="#808080" stroke-width="1"/>
    <path d="M3 15 L7 23 L4 23 L1 15 Z" fill="#d0d0d0" stroke="#808080" stroke-width="1"/>
    <rect x="-1" y="15" width="2" height="8" fill="#d0d0d0" stroke="#808080" stroke-width="1"/>
  </g>

  <!-- Player loop animation frames -->
  <g id="player-loop1" transform="translate(150, 50)">
    <path d="M0 0 L10 15 L-10 15 Z" fill="#d0d0d0" stroke="#808080" stroke-width="1"/>
    <rect x="-8" y="2" width="16" height="13" fill="#c0c0c0" stroke="#808080" stroke-width="1" transform="rotate(45 0 8)"/>
    <path d="M-8 2 L-15 -5 L15 -5 L8 2 Z" fill="#c0c0c0" stroke="#808080" stroke-width="1" transform="rotate(45 0 0)"/>
  </g>

  <g id="player-loop2" transform="translate(200, 50)">
    <path d="M0 0 L15 -10 L15 10 Z" fill="#d0d0d0" stroke="#808080" stroke-width="1"/>
    <rect x="-8" y="2" width="16" height="13" fill="#c0c0c0" stroke="#808080" stroke-width="1" transform="rotate(90 0 8)"/>
    <path d="M-8 2 L-15 -5 L15 -5 L8 2 Z" fill="#c0c0c0" stroke="#808080" stroke-width="1" transform="rotate(90 0 0)"/>
  </g>

  <g id="player-loop3" transform="translate(250, 50)">
    <path d="M0 0 L10 -15 L-10 -15 Z" fill="#d0d0d0" stroke="#808080" stroke-width="1"/>
    <rect x="-8" y="2" width="16" height="13" fill="#c0c0c0" stroke="#808080" stroke-width="1" transform="rotate(135 0 8)"/>
    <path d="M-8 2 L-15 -5 L15 -5 L8 2 Z" fill="#c0c0c0" stroke="#808080" stroke-width="1" transform="rotate(135 0 0)"/>
  </g>

  <g id="player-loop4" transform="translate(300, 50)">
    <path d="M0 0 L-15 -10 L-15 10 Z" fill="#d0d0d0" stroke="#808080" stroke-width="1"/>
    <rect x="-8" y="2" width="16" height="13" fill="#c0c0c0" stroke="#808080" stroke-width="1" transform="rotate(180 0 8)"/>
    <path d="M-8 2 L-15 -5 L15 -5 L8 2 Z" fill="#c0c0c0" stroke="#808080" stroke-width="1" transform="rotate(180 0 0)"/>
  </g>

  <!-- Basic Enemies -->
  <g id="enemy-basic" transform="translate(100, 150)">
    <!-- Enemy body -->
    <path d="M0 0 L-5 15 L5 15 Z" fill="#800000" stroke="#400000" stroke-width="1"/>
    <rect x="-7" y="3" width="14" height="12" fill="#a00000" stroke="#400000" stroke-width="1"/>
    <path d="M-7 3 L-12 -3 L12 -3 L7 3 Z" fill="#a00000" stroke="#400000" stroke-width="1"/>
    <ellipse cx="0" cy="0" rx="2" ry="4" fill="#600000" stroke="#400000" stroke-width="1"/>

    <!-- Wings -->
    <path d="M-7 8 L-20 13 L-20 11 L-7 5 Z" fill="#600000" stroke="#400000" stroke-width="1"/>
    <path d="M7 8 L20 13 L20 11 L7 5 Z" fill="#600000" stroke="#400000" stroke-width="1"/>
  </g>

  <!-- Bomber Enemy -->
  <g id="enemy-bomber" transform="translate(200, 150)">
    <!-- Bomber body -->
    <ellipse cx="0" cy="0" rx="15" ry="8" fill="#008080" stroke="#004040" stroke-width="1"/>
    <rect x="-10" y="-8" width="20" height="16" fill="#00a0a0" stroke="#004040" stroke-width="1"/>
    <path d="M-10 -8 L-15 -12 L15 -12 L10 -8 Z" fill="#00a0a0" stroke="#004040" stroke-width="1"/>
    <path d="M-10 8 L-15 12 L15 12 L10 8 Z" fill="#00a0a0" stroke="#004040" stroke-width="1"/>
    
    <!-- Side engines -->
    <ellipse cx="-15" cy="0" rx="5" ry="3" fill="#008080" stroke="#004040" stroke-width="1"/>
    <ellipse cx="15" cy="0" rx="5" ry="3" fill="#008080" stroke="#004040" stroke-width="1"/>
    
    <!-- Bombs -->
    <ellipse cx="-5" cy="15" rx="3" ry="5" fill="#404040" stroke="#202020" stroke-width="1"/>
    <ellipse cx="5" cy="15" rx="3" ry="5" fill="#404040" stroke="#202020" stroke-width="1"/>
  </g>

  <!-- Boss Enemy -->
  <g id="enemy-boss" transform="translate(300, 150)">
    <!-- Boss body -->
    <rect x="-30" y="-15" width="60" height="30" rx="5" ry="5" fill="#800080" stroke="#400040" stroke-width="2"/>
    <path d="M-30 -5 L-40 -20 L-35 -20 L-25 -5 Z" fill="#a000a0" stroke="#400040" stroke-width="1"/>
    <path d="M30 -5 L40 -20 L35 -20 L25 -5 Z" fill="#a000a0" stroke="#400040" stroke-width="1"/>
    <path d="M-30 5 L-40 20 L-35 20 L-25 5 Z" fill="#a000a0" stroke="#400040" stroke-width="1"/>
    <path d="M30 5 L40 20 L35 20 L25 5 Z" fill="#a000a0" stroke="#400040" stroke-width="1"/>
    
    <!-- Boss face -->
    <ellipse cx="-15" cy="0" rx="5" ry="5" fill="#ff0000" stroke="#800000" stroke-width="1"/>
    <ellipse cx="15" cy="0" rx="5" ry="5" fill="#ff0000" stroke="#800000" stroke-width="1"/>
    <path d="M-10 10 L10 10 L10 8 L-10 8 Z" fill="#ff0000" stroke="#800000" stroke-width="1"/>
    
    <!-- Guns -->
    <rect x="-25" y="15" width="10" height="15" fill="#600060" stroke="#400040" stroke-width="1"/>
    <rect x="15" y="15" width="10" height="15" fill="#600060" stroke="#400040" stroke-width="1"/>
    <rect x="-5" y="15" width="10" height="10" fill="#600060" stroke="#400040" stroke-width="1"/>
  </g>

  <!-- Bullets -->
  <g id="bullet" transform="translate(100, 250)">
    <ellipse cx="0" cy="0" rx="2" ry="6" fill="#ffff00" stroke="#ff8000" stroke-width="1"/>
  </g>

  <g id="enemy-bullet" transform="translate(150, 250)">
    <ellipse cx="0" cy="0" rx="2" ry="6" fill="#ff0000" stroke="#800000" stroke-width="1"/>
  </g>

  <!-- Power-ups -->
  <g id="powerup" transform="translate(200, 250)">
    <ellipse cx="0" cy="0" rx="10" ry="10" fill="#0080ff" stroke="#0040a0" stroke-width="1"/>
    <text x="0" y="5" font-family="Arial" font-size="14" text-anchor="middle" fill="#ffffff">P</text>
  </g>

  <!-- Explosion animation frames -->
  <g id="explosion-1" transform="translate(300, 250)">
    <circle cx="0" cy="0" r="5" fill="url(#explosion)"/>
  </g>

  <g id="explosion-2" transform="translate(350, 250)">
    <circle cx="0" cy="0" r="10" fill="url(#explosion)"/>
  </g>

  <g id="explosion-3" transform="translate(400, 250)">
    <circle cx="0" cy="0" r="15" fill="url(#explosion)"/>
  </g>

  <g id="explosion-4" transform="translate(450, 250)">
    <circle cx="0" cy="0" r="20" fill="url(#explosion)"/>
  </g>

  <g id="explosion-5" transform="translate(500, 250)">
    <circle cx="0" cy="0" r="15" fill="url(#explosion)" opacity="0.8"/>
  </g>

  <g id="explosion-6" transform="translate(550, 250)">
    <circle cx="0" cy="0" r="10" fill="url(#explosion)" opacity="0.6"/>
  </g>

  <!-- UI Elements -->
  <g id="ui-elements" transform="translate(400, 400)">
    <!-- Lives indicator -->
    <g transform="translate(-100, 0) scale(0.5)">
      <path d="M0 0 L-10 15 L10 15 Z" fill="#d0d0d0" stroke="#808080" stroke-width="1"/>
      <rect x="-8" y="2" width="16" height="13" fill="#c0c0c0" stroke="#808080" stroke-width="1"/>
      <path d="M-8 2 L-15 -5 L15 -5 L8 2 Z" fill="#c0c0c0" stroke="#808080" stroke-width="1"/>
    </g>
    
    <!-- Loop indicator -->
    <g transform="translate(0, 0) scale(0.5)">
      <path d="M0 0 Q 10 0, 10 10 T 0 20 T -10 10 T 0 0" fill="none" stroke="#ffffff" stroke-width="2"/>
      <path d="M0 0 L 5 -5 L 0 -10 L -5 -5 Z" fill="#ffffff" stroke="#ffffff" stroke-width="1"/>
    </g>
    
    <!-- Power indicator -->
    <g transform="translate(100, 0)">
      <rect x="-20" y="-10" width="40" height="20" rx="5" ry="5" fill="#004080" stroke="#002040" stroke-width="1"/>
      <rect x="-15" y="-5" width="10" height="10" fill="#00ff00" stroke="#008000" stroke-width="1"/>
      <rect x="-5" y="-5" width="10" height="10" fill="#d0d0d0" stroke="#808080" stroke-width="1"/>
      <rect x="5" y="-5" width="10" height="10" fill="#d0d0d0" stroke="#808080" stroke-width="1"/>
    </g>
  </g>

  <!-- Title Screen Elements -->
  <g id="title-screen" transform="translate(400, 500)">
    <text x="0" y="0" font-family="Impact" font-size="80" text-anchor="middle" fill="#ffffff" stroke="#000000" stroke-width="2">1942</text>
    <text x="0" y="40" font-family="Arial" font-size="20" text-anchor="middle" fill="#ffffff">PRESS SPACE TO START</text>
    <text x="0" y="80" font-family="Arial" font-size="14" text-anchor="middle" fill="#ffffff">ARROW KEYS: MOVE | SPACE: FIRE | Z: LOOP</text>
    <text x="0" y="110" font-family="Arial" font-size="10" text-anchor="middle" fill="#ffffff">ORIGINAL GAME BY CAPCOM (1984)</text>
  </g>
</svg>